<?xml version="1.0" encoding="iso-8859-1"?>
<!-- Generator: Adobe Illustrator 18.0.0, SVG Export Plug-In . SVG Version: 6.00 Build 0)  -->
<!DOCTYPE svg PUBLIC "-//W3C//DTD SVG 1.1//EN" "http://www.w3.org/Graphics/SVG/1.1/DTD/svg11.dtd">
<svg version="1.1" id="Capa_1" xmlns="http://www.w3.org/2000/svg" xmlns:xlink="http://www.w3.org/1999/xlink" x="0px" y="0px"
	 viewBox="0 0 297.5 297.5" style="enable-background:new 0 0 297.5 297.5;" xml:space="preserve">
<g id="XMLID_26_">
	<g>
		<path style="fill:#FCBF31;" d="M245.66,114.38H51.85c1.72-24.75,12.73-46.98,29.58-63.19v45.03c0,5.54,4.49,10.04,10.03,10.04
			c5.55,0,10.04-4.5,10.04-10.04V36.31c7.13-3.99,14.81-7.09,22.9-9.18v69.09c0,5.54,4.49,10.04,10.03,10.04h28.65
			c5.54,0,10.03-4.5,10.03-10.04V27.13c8.09,2.09,15.77,5.19,22.9,9.18v59.91c0,5.54,4.49,10.04,10.03,10.04
			c5.55,0,10.04-4.5,10.04-10.04V51.19C232.93,67.4,243.94,89.63,245.66,114.38z"/>
		<rect x="30.33" y="134.45" style="fill:#FCBF31;" width="236.84" height="10.42"/>
		<path style="fill:#E2B68F;" d="M179.57,164.95h7.79c0,11-4.48,20.97-11.7,28.19c-7.22,7.23-17.2,11.7-28.19,11.7
			c-22,0-39.9-17.9-39.9-39.89h7.79c0,8.85,3.6,16.88,9.41,22.69c5.82,5.81,13.85,9.41,22.7,9.41
			C165.17,197.05,179.57,182.65,179.57,164.95z"/>
		<path style="fill:#DE6051;" d="M253.23,206.22l-17.14,29.68l-13.08-7.55c-3.9-2.25-8.82-1.63-12.04,1.52
			c-10.92,10.68-24.42,18.49-39.03,22.56c-4.34,1.21-7.34,5.17-7.34,9.67v15.08h-34.27V262.1c0-4.5-3-8.46-7.34-9.67
			c-14.61-4.07-28.11-11.88-39.03-22.56c-3.22-3.15-8.14-3.77-12.04-1.52l-13.08,7.55L41.7,206.22l13.06-7.54
			c3.9-2.24,5.82-6.81,4.7-11.17c-1.87-7.33-2.82-14.92-2.82-22.56H87.5c0,16.53,6.72,31.52,17.58,42.38s25.86,17.58,42.39,17.58
			c33.06,0,59.96-26.9,59.96-59.96h30.86c0,7.64-0.95,15.23-2.82,22.56c-1.12,4.36,0.81,8.93,4.7,11.17L253.23,206.22z"/>
		<path d="M287.24,124.41v30.5c0,5.54-4.49,10.04-10.03,10.04h-18.85c0,6.73-0.61,13.43-1.81,20.02l15.4,8.89
			c4.8,2.77,6.45,8.91,3.68,13.71l-27.17,47.06c-2.77,4.8-8.91,6.44-13.71,3.67l-15.42-8.9c-10.25,8.72-22.03,15.53-34.66,20.04
			v17.77c0,5.55-4.49,10.04-10.03,10.04h-54.35c-5.54,0-10.03-4.49-10.03-10.04v-17.77c-12.63-4.51-24.41-11.32-34.66-20.04
			l-15.42,8.9c-4.8,2.77-10.93,1.13-13.71-3.67L19.3,207.57c-1.33-2.31-1.69-5.05-1-7.62c0.69-2.57,2.37-4.76,4.68-6.09l15.4-8.89
			c-1.2-6.59-1.81-13.29-1.81-20.02H20.3c-5.54,0-10.04-4.5-10.04-10.04v-30.5c0-5.54,4.5-10.03,10.04-10.03h11.42
			C34.8,60.83,73.97,16.8,125.22,6.31c1.53-3.56,5.08-6.06,9.21-6.06h28.65c4.13,0,7.67,2.5,9.21,6.06
			c51.25,10.49,90.42,54.52,93.5,108.07h11.42C282.75,114.38,287.24,118.87,287.24,124.41z M267.17,144.87v-10.42H30.33v10.42
			H267.17z M236.09,235.9l17.14-29.68l-13.06-7.54c-3.89-2.24-5.82-6.81-4.7-11.17c1.87-7.33,2.82-14.92,2.82-22.56h-30.86
			c0,33.06-26.9,59.96-59.96,59.96c-16.53,0-31.53-6.72-42.39-17.58S87.5,181.48,87.5,164.95H56.64c0,7.64,0.95,15.23,2.82,22.56
			c1.12,4.36-0.8,8.93-4.7,11.17l-13.06,7.54l17.14,29.68l13.08-7.55c3.9-2.25,8.82-1.63,12.04,1.52
			c10.92,10.68,24.42,18.49,39.03,22.56c4.34,1.21,7.34,5.17,7.34,9.67v15.08h34.27V262.1c0-4.5,3-8.46,7.34-9.67
			c14.61-4.07,28.11-11.88,39.03-22.56c3.22-3.15,8.14-3.77,12.04-1.52L236.09,235.9z M51.85,114.38h193.81
			c-1.72-24.75-12.73-46.98-29.58-63.19v45.03c0,5.54-4.49,10.04-10.04,10.04c-5.54,0-10.03-4.5-10.03-10.04V36.31
			c-7.13-3.99-14.81-7.09-22.9-9.18v69.09c0,5.54-4.49,10.04-10.03,10.04h-28.65c-5.54,0-10.03-4.5-10.03-10.04V27.13
			c-8.09,2.09-15.77,5.19-22.9,9.18v59.91c0,5.54-4.49,10.04-10.04,10.04c-5.54,0-10.03-4.5-10.03-10.04V51.19
			C64.58,67.4,53.57,89.63,51.85,114.38z M187.36,164.95h-7.79c0,17.7-14.4,32.1-32.1,32.1c-8.85,0-16.88-3.6-22.7-9.41
			c-5.81-5.81-9.41-13.84-9.41-22.69h-7.79c0,21.99,17.9,39.89,39.9,39.89c10.99,0,20.97-4.47,28.19-11.7
			C182.88,185.92,187.36,175.95,187.36,164.95z M159.5,164.95h-24.07c0,6.63,5.4,12.03,12.04,12.03
			C154.1,176.98,159.5,171.58,159.5,164.95z M153.04,86.18V20.32h-8.57v65.86H153.04z"/>
	</g>
	<g>
	</g>
</g>
<g>
</g>
<g>
</g>
<g>
</g>
<g>
</g>
<g>
</g>
<g>
</g>
<g>
</g>
<g>
</g>
<g>
</g>
<g>
</g>
<g>
</g>
<g>
</g>
<g>
</g>
<g>
</g>
<g>
</g>
</svg>
